<?xml version="1.0" standalone="no"?>
<!DOCTYPE svg PUBLIC "-//W3C//DTD SVG 20010904//EN"
 "http://www.w3.org/TR/2001/REC-SVG-20010904/DTD/svg10.dtd">
<svg version="1.0" xmlns="http://www.w3.org/2000/svg"
 width="1200.000000pt" height="675.000000pt" viewBox="0 0 1200.000000 675.000000"
 preserveAspectRatio="xMidYMid meet">

<g transform="translate(0.000000,675.000000) scale(0.100000,-0.100000)"
fill="#000000" stroke="none">
<path d="M0 3375 l0 -3375 3470 0 c2769 0 3470 3 3471 13 3 31 -4 53 -20 67
-9 8 -17 28 -17 45 1 23 6 30 26 35 14 3 26 14 28 23 2 9 -20 62 -49 117 -40
77 -50 103 -41 112 7 7 12 20 12 30 0 10 5 18 11 18 8 0 10 16 6 50 -5 40 -3
52 8 55 8 3 23 8 33 12 9 3 20 6 24 5 4 -1 25 5 48 13 30 11 53 12 90 5 27 -5
87 -9 134 -9 46 1 89 -1 94 -4 5 -4 24 -9 43 -12 18 -3 54 -13 79 -21 25 -7
81 -18 125 -23 270 -32 404 -62 480 -108 47 -30 68 -36 106 -36 40 1 53 -4 88
-33 45 -39 57 -41 116 -23 89 27 233 6 353 -53 75 -36 77 -43 68 -179 l-6 -99
1610 0 1610 0 0 3375 0 3375 -3215 0 c-1768 0 -3215 -3 -3215 -8 0 -4 14 -20
30 -35 16 -16 30 -34 30 -41 0 -6 10 -27 23 -46 13 -19 30 -57 37 -85 15 -57
68 -195 81 -211 4 -5 6 -19 3 -30 -11 -40 16 -142 62 -239 26 -55 57 -131 69
-170 21 -64 28 -75 86 -122 35 -28 65 -56 67 -61 1 -5 -13 -13 -33 -16 -29 -6
-35 -11 -35 -32 0 -13 11 -47 25 -74 14 -27 25 -58 25 -68 0 -11 8 -30 19 -43
10 -13 21 -31 24 -39 4 -12 6 -12 6 2 1 9 6 20 13 24 8 5 9 -2 5 -24 -4 -18
-5 -32 -3 -32 9 0 56 102 71 153 17 58 35 76 35 33 0 -32 -22 -93 -70 -191
-42 -86 -49 -128 -26 -154 7 -9 23 -43 35 -76 13 -33 47 -113 78 -178 46 -98
59 -139 79 -250 38 -204 41 -215 95 -327 56 -116 119 -266 119 -284 0 -21 54
-121 75 -138 18 -16 19 -17 2 -18 -22 0 -20 -11 20 -155 28 -101 54 -263 43
-270 -4 -2 -20 -3 -36 -1 -41 6 -238 47 -246 52 -30 19 -262 45 -509 59 l-107
5 -11 -31 c-19 -54 -13 -72 39 -129 27 -30 67 -75 87 -99 21 -24 70 -76 109
-115 95 -95 107 -117 107 -189 -1 -33 3 -73 8 -90 7 -26 4 -35 -21 -63 -16
-19 -32 -29 -35 -24 -11 17 -54 11 -105 -15 -27 -14 -54 -25 -59 -25 -12 0
-71 61 -71 74 0 5 -15 27 -33 50 -19 23 -45 65 -58 94 -13 28 -27 52 -31 52
-5 0 -8 13 -8 28 0 34 -12 49 -69 88 -25 16 -52 42 -60 57 -9 16 -28 30 -44
34 -29 6 -31 12 -42 94 -5 37 -3 48 10 53 13 5 13 9 3 26 -11 18 -10 23 6 36
11 8 28 14 37 14 48 0 66 65 22 76 -38 10 -90 42 -97 60 -9 23 -26 6 -26 -25
0 -16 -7 -34 -16 -41 -27 -23 -35 -47 -24 -74 20 -54 -24 -76 -70 -36 -20 17
-21 22 -9 37 12 15 12 16 -3 10 -12 -4 -18 -2 -18 8 0 17 -48 75 -62 75 -6 0
-32 11 -59 25 -43 21 -51 22 -56 9 -3 -9 6 -28 25 -47 65 -68 72 -78 72 -100
0 -13 9 -32 20 -42 14 -13 17 -22 10 -30 -7 -9 -6 -16 5 -25 10 -9 15 -9 15
-1 0 16 45 13 60 -4 16 -19 50 -2 50 26 0 15 5 20 23 17 19 -3 22 -8 19 -40
-1 -20 2 -39 8 -43 5 -3 10 -25 10 -47 0 -40 13 -94 31 -131 5 -9 6 -41 3 -71
-8 -65 1 -107 20 -100 10 4 13 -5 13 -35 0 -38 -2 -41 -27 -41 -19 0 -30 7
-38 25 -16 35 -15 55 3 55 8 0 15 9 15 20 0 25 -38 27 -47 3 -11 -29 -26 -40
-45 -35 -10 2 -25 1 -34 -2 -14 -5 -14 -9 -3 -22 7 -8 21 -13 31 -11 11 3 18
0 18 -9 0 -7 6 -11 14 -8 7 3 16 -2 19 -10 4 -9 12 -16 20 -16 19 0 79 -65 70
-75 -5 -4 -3 -5 4 -1 17 9 93 -16 93 -32 0 -7 11 -17 25 -22 14 -5 25 -16 25
-23 0 -7 13 -26 29 -41 31 -30 48 -22 35 17 -4 12 -7 29 -6 38 3 19 -92 84
-107 75 -15 -9 -27 21 -35 84 -4 30 -11 59 -15 65 -20 26 -40 195 -23 195 4 0
22 -16 41 -35 18 -19 36 -35 41 -35 4 0 13 -13 20 -29 6 -16 23 -38 36 -50 14
-12 22 -26 19 -31 -3 -6 -1 -10 4 -10 6 0 11 -9 11 -19 0 -11 5 -23 10 -26 13
-8 40 -72 40 -95 0 -28 58 -100 80 -100 16 0 20 -7 20 -30 0 -16 5 -30 10 -30
6 0 10 6 10 14 0 17 43 46 70 46 11 0 20 4 20 10 0 5 12 13 28 16 15 4 43 18
62 31 31 21 78 38 135 49 11 2 27 12 35 23 8 10 31 21 50 25 19 3 67 22 107
41 40 19 77 35 83 35 5 0 10 6 10 13 0 17 31 42 56 44 44 5 75 24 91 58 9 19
20 35 25 35 4 0 15 14 23 30 30 57 129 180 146 180 18 0 61 -59 74 -100 9 -31
95 -231 105 -245 3 -5 13 -26 20 -45 7 -19 35 -55 61 -80 52 -49 84 -111 95
-187 4 -26 13 -65 20 -87 8 -21 11 -42 8 -47 -3 -5 15 -44 41 -87 64 -107 59
-99 98 -182 19 -41 40 -94 46 -117 11 -39 59 -148 81 -183 6 -8 27 -46 47 -83
21 -38 61 -107 90 -155 28 -48 64 -109 79 -136 19 -32 46 -60 83 -83 59 -38
81 -39 168 -6 40 14 54 14 133 -3 8 -2 40 -6 70 -10 30 -4 70 -15 90 -25 19
-11 45 -19 59 -19 26 0 213 -89 304 -145 62 -39 92 -83 103 -154 l7 -41 -44 1
c-24 0 -80 5 -124 10 -44 5 -120 14 -170 18 -49 5 -144 16 -210 25 -120 17
-262 23 -272 12 -4 -3 -12 -1 -19 5 -10 8 -28 8 -64 0 -71 -15 -347 -16 -385
-1 -78 31 -305 64 -380 55 -32 -4 -76 -1 -123 10 -40 9 -79 15 -86 12 -12 -5
-49 2 -256 48 -42 9 -93 28 -115 43 -32 22 -52 27 -100 28 -77 0 -87 4 -106
35 -9 14 -31 36 -49 50 -18 13 -51 43 -74 65 -37 38 -61 52 -91 55 -16 1 -45
31 -39 40 2 5 -11 19 -30 31 -20 13 -36 29 -36 36 0 6 -6 12 -14 12 -8 0 -29
15 -48 32 -19 18 -49 44 -67 57 -30 23 -56 49 -125 125 -14 16 -31 46 -36 67
-10 38 -12 39 -54 39 -40 0 -45 3 -56 32 -28 75 -31 78 -77 78 -60 0 -88 28
-79 81 6 35 4 40 -18 49 -13 5 -26 13 -29 17 -3 5 -20 10 -38 11 -18 1 -40 11
-49 22 -9 11 -28 24 -41 30 -39 18 -63 33 -93 61 -15 15 -36 25 -45 22 -9 -2
-27 7 -41 22 -13 14 -42 30 -64 37 -43 12 -54 13 -122 16 -27 1 -59 14 -100
40 -50 33 -65 38 -101 34 -39 -4 -43 -1 -65 32 -13 20 -31 38 -40 42 -19 6
-26 64 -9 64 5 0 17 7 25 15 13 13 13 20 3 35 -6 11 -17 20 -24 20 -6 0 -13 4
-15 10 -1 5 -21 29 -42 53 -32 37 -40 53 -42 93 -5 84 -9 95 -48 130 -20 19
-41 34 -46 34 -5 0 -11 8 -14 18 -6 19 -52 41 -141 66 -33 10 -68 22 -77 27
-10 5 -38 9 -62 9 -25 0 -48 5 -51 10 -3 6 -24 10 -45 10 -34 0 -42 4 -55 30
-9 18 -11 30 -5 30 6 0 10 6 9 13 -3 24 1 37 12 37 16 0 119 112 112 123 -5 9
-49 5 -90 -8 -20 -6 -23 -4 -23 18 0 37 10 57 29 58 9 1 5 4 -9 9 -31 9 -61
-19 -53 -50 3 -12 0 -20 -6 -20 -7 0 -11 -6 -10 -12 5 -27 -22 -95 -46 -118
-14 -13 -25 -29 -25 -35 0 -7 -10 -24 -21 -39 -16 -21 -28 -26 -53 -24 -25 2
-32 8 -34 30 -4 30 25 120 64 207 23 49 24 62 19 145 -3 50 -2 132 3 181 5 50
5 155 1 235 -7 127 -13 159 -44 255 -19 61 -38 128 -42 150 -7 48 -26 87 -65
137 -16 20 -48 74 -71 118 -27 52 -54 88 -72 98 -15 10 -55 43 -89 76 -34 32
-89 81 -123 108 -35 27 -63 54 -63 59 0 5 -15 15 -33 23 -19 7 -44 26 -56 42
-31 39 -58 53 -106 54 -24 0 -50 8 -65 20 -14 11 -31 20 -39 20 -8 0 -39 26
-69 57 l-54 56 -75 3 c-61 2 -82 7 -114 29 -34 22 -52 26 -112 27 -49 1 -85 7
-112 20 -37 18 -48 18 -151 7 -116 -12 -144 -10 -144 15 0 27 88 35 340 32
234 -3 248 -4 317 -29 40 -14 94 -29 120 -32 46 -7 119 -25 156 -40 10 -4 17
-3 17 4 0 20 -23 38 -42 33 -11 -3 -18 1 -18 11 0 32 -129 93 -145 68 -10 -17
-48 -13 -96 8 -25 11 -76 25 -114 30 -39 6 -88 15 -110 21 -22 5 -74 12 -115
14 -111 7 -228 24 -253 38 -27 14 -97 71 -97 79 0 20 57 63 130 97 97 45 141
51 365 53 149 0 209 10 219 34 3 8 2 15 -2 15 -4 0 -12 15 -17 33 -7 22 -15
31 -27 29 -10 -2 -18 2 -18 8 0 13 27 13 35 0 7 -11 45 30 45 49 0 6 7 11 15
11 8 0 15 7 15 15 0 9 9 15 25 15 14 0 25 4 25 9 0 4 24 11 53 14 28 3 60 8
69 12 13 5 19 0 24 -19 3 -14 10 -24 14 -21 5 3 40 -6 79 -20 39 -15 76 -23
81 -20 6 4 13 -1 16 -9 3 -9 12 -16 20 -16 16 0 19 26 3 35 -6 4 -8 13 -5 21
4 10 -3 14 -24 14 -16 0 -32 5 -36 11 -3 6 -17 9 -30 6 -13 -2 -24 0 -24 6 0
5 -13 7 -29 4 -45 -9 -75 19 -73 69 1 33 -2 41 -25 52 -15 6 -32 12 -38 12
-19 0 -48 38 -42 55 4 8 18 15 32 15 15 0 24 4 20 10 -4 6 10 10 34 10 28 0
43 -5 50 -17 11 -20 26 -11 18 11 -3 8 -19 17 -36 21 -43 9 -39 22 9 30 22 4
40 10 40 15 0 12 -39 20 -46 9 -11 -18 -39 -8 -58 19 -14 21 -26 28 -55 28
-47 0 -91 12 -91 24 0 6 7 10 16 10 8 0 13 4 10 8 -9 16 12 34 44 38 18 2 50
-5 75 -16 24 -11 51 -20 59 -20 18 0 22 25 5 35 -6 4 -8 13 -5 20 3 8 0 16 -7
19 -44 18 76 -12 156 -40 53 -18 97 -31 97 -27 0 13 -72 72 -112 92 -80 38
-142 52 -278 61 -159 10 -341 -1 -500 -31 -63 -11 -137 -24 -165 -28 -45 -7
-178 -48 -230 -71 -11 -5 -54 -21 -95 -35 -105 -37 -282 -105 -300 -116 -8 -5
-35 -19 -60 -31 -25 -12 -59 -32 -76 -45 -17 -13 -38 -23 -47 -23 -8 0 -18 -8
-20 -17 -3 -10 -5 -4 -6 13 0 18 8 42 19 57 11 14 20 30 20 36 0 19 66 60 135
85 147 51 135 41 128 96 -8 68 3 114 36 149 l29 31 -839 0 -839 0 0 -3375z
m6190 3194 c0 -5 -7 -9 -15 -9 -15 0 -20 12 -9 23 8 8 24 -1 24 -14z m-246 -7
c15 -8 -18 -22 -51 -22 -23 0 -33 5 -33 16 0 12 9 15 38 13 20 -1 41 -5 46 -7z
m-84 -134 c0 -19 -16 -5 -17 14 -2 18 0 20 7 8 5 -8 10 -18 10 -22z m1718
-126 c2 -7 -3 -12 -12 -12 -9 0 -16 7 -16 16 0 17 22 14 28 -4z m-1558 -9 c0
-8 -5 -23 -10 -34 -10 -18 -12 -19 -34 -2 -18 14 -21 21 -13 34 13 20 57 22
57 2z m1685 -93 c-3 -4 18 -17 45 -29 54 -23 62 -36 30 -46 -11 -3 -20 -11
-20 -16 0 -5 -8 -9 -17 -8 -12 0 -13 2 -5 6 16 6 -23 43 -46 43 -12 0 -12 3
-2 15 7 8 8 15 2 15 -5 0 -12 8 -15 19 -3 14 0 17 14 14 10 -3 17 -9 14 -13z
m-478 -98 c28 -16 41 -15 59 2 22 23 54 8 54 -25 0 -15 -4 -30 -9 -33 -4 -3
-11 -29 -14 -57 -4 -28 -11 -57 -18 -65 -14 -17 -4 -74 22 -128 10 -22 19 -44
19 -49 0 -5 9 -21 19 -36 11 -15 23 -39 26 -54 12 -48 28 -30 23 26 -3 28 -2
63 2 77 l7 25 12 -28 c6 -16 11 -33 11 -38 0 -5 6 -9 13 -9 9 0 12 -10 9 -30
-5 -36 9 -39 38 -8 18 19 22 20 30 8 20 -31 1 -90 -29 -90 -17 0 -12 -67 14
-162 6 -24 4 -28 -14 -28 -43 0 -9 -43 35 -45 23 -1 43 -18 44 -37 0 -12 -14
-10 -28 4 -19 19 -82 11 -103 -13 -23 -27 -23 -25 2 -50 11 -11 18 -23 15 -27
-4 -3 -12 0 -18 6 -20 20 -58 15 -58 -8 0 -14 -14 -25 -49 -41 -27 -11 -52
-27 -55 -35 -3 -8 -12 -14 -21 -14 -13 0 -14 -4 -4 -21 12 -23 -2 -69 -21 -69
-5 0 -10 -7 -10 -15 0 -18 16 -20 24 -2 3 6 4 -1 1 -16 -5 -23 2 -38 32 -75
61 -76 70 -84 78 -73 9 15 36 14 33 -1 -1 -7 3 -22 9 -33 6 -11 13 -24 15 -30
1 -5 11 -9 20 -8 10 2 25 -9 35 -23 16 -25 16 -27 -3 -40 -61 -41 -93 -71 -94
-88 0 -17 6 -18 65 -14 l64 6 -6 -29 c-5 -26 -3 -29 20 -29 13 0 30 7 37 15 7
8 19 15 26 15 8 0 14 7 14 15 0 8 7 15 15 15 8 0 15 4 15 10 0 5 11 12 24 16
26 6 39 34 25 55 -6 10 -9 8 -9 -9 0 -22 -31 -42 -67 -42 -23 0 2 26 32 34 21
5 23 10 18 42 -5 30 -3 36 15 41 12 3 38 27 57 54 35 49 43 69 26 69 -15 0 1
49 18 52 22 5 69 -20 81 -42 13 -23 13 -101 1 -133 -14 -35 -82 -97 -108 -97
-12 0 -24 -4 -27 -9 -4 -5 3 -7 14 -4 29 8 24 -13 -9 -36 -37 -27 -44 -26 -36
2 5 16 0 13 -16 -11 -16 -24 -48 -46 -128 -83 -152 -72 -153 -73 -188 -120
-66 -90 -100 -124 -180 -176 -44 -29 -87 -53 -95 -53 -20 0 -37 -20 -31 -36 3
-8 0 -14 -5 -14 -6 0 -23 -11 -38 -25 -15 -14 -39 -25 -54 -25 -16 0 -35 -10
-48 -25 -24 -28 -39 -30 -75 -14 -46 21 -57 127 -15 141 10 4 8 15 -9 47 -13
24 -23 53 -23 66 0 12 -6 27 -13 33 -8 7 -13 31 -12 62 1 31 -4 55 -12 62 -7
6 -13 19 -13 29 0 11 -4 27 -9 37 -19 36 -33 100 -26 121 5 16 -2 29 -26 54
-26 26 -29 33 -16 35 15 3 15 6 2 32 -13 26 -13 28 5 33 20 5 29 47 11 47 -5
0 -11 14 -13 30 -3 23 -1 30 9 26 16 -7 18 45 2 61 -8 8 -7 17 5 34 16 23 23
90 9 75 -5 -4 -8 -13 -8 -19 0 -7 -8 -12 -17 -12 -10 0 -24 -9 -32 -20 -15
-20 -15 -20 -16 3 0 30 18 64 31 57 5 -4 9 -1 9 6 0 6 8 9 19 6 16 -4 19 0 18
27 -1 17 2 56 6 86 6 42 5 51 -3 37 -6 -9 -15 -15 -20 -12 -13 8 0 35 16 35 8
0 14 10 14 23 0 13 5 28 10 33 12 12 70 6 70 -7 0 -5 -6 -6 -14 -3 -17 7 -32
-14 -19 -27 6 -6 22 -4 43 4 22 10 28 16 19 21 -11 5 -11 7 -1 12 6 3 12 11
12 17 0 6 8 19 17 29 15 17 15 20 3 28 -12 8 -12 10 4 10 15 0 17 5 12 26 -7
28 5 52 49 100 14 15 25 31 25 35 0 17 -25 9 -38 -11 -14 -23 -42 -27 -42 -6
0 8 11 27 25 42 14 15 25 38 25 50 0 13 9 33 21 45 20 20 20 21 1 26 -29 7
-21 67 14 104 20 21 25 34 21 56 -4 15 -4 22 -1 16 9 -20 31 -15 37 7 4 16 12
20 38 18 18 -2 34 2 36 10 3 6 -2 12 -10 12 -22 0 -31 32 -13 46 9 6 16 16 16
23 0 6 5 11 10 11 6 0 10 9 10 19 0 11 9 23 20 26 11 3 20 12 20 19 0 9 9 12
26 8 19 -3 25 -1 20 7 -10 15 29 10 61 -7z m701 -10 c9 -6 5 -12 -13 -20 -47
-22 -79 -7 -37 17 21 13 33 13 50 3z m-5330 -31 c3 -19 0 -22 -13 -17 -9 3
-19 6 -21 6 -2 0 -4 9 -4 21 0 29 34 21 38 -10z m22 -41 c0 -5 -2 -10 -4 -10
-3 0 -8 5 -11 10 -3 6 -1 10 4 10 6 0 11 -4 11 -10z m5410 -40 c0 -5 -9 -14
-20 -20 -17 -9 -20 -8 -20 8 0 11 8 18 20 19 11 1 20 -2 20 -7z m-403 -15 c8
-22 -6 -33 -17 -15 -13 20 -12 30 0 30 6 0 13 -7 17 -15z m808 -35 c17 -6 15
-8 -15 -13 -110 -18 -190 -22 -190 -11 0 20 166 40 205 24z m-529 -62 c32 -29
63 -52 71 -52 7 1 13 -7 13 -17 0 -14 7 -19 28 -18 15 0 21 3 15 6 -7 2 -13
18 -13 35 0 30 1 30 19 14 13 -12 21 -14 26 -6 11 18 34 -21 35 -58 0 -33 -29
-59 -38 -34 -6 20 -22 13 -33 -15 -7 -20 -6 -36 8 -70 19 -46 29 -52 47 -29
11 15 40 21 86 17 24 -2 24 -2 6 -16 -16 -12 -17 -18 -8 -27 16 -16 15 -31 -2
-25 -16 7 -27 -34 -19 -74 10 -50 -17 -140 -82 -274 -36 -75 -65 -142 -65
-149 0 -8 -7 -19 -15 -26 -16 -14 -16 -15 -19 47 -2 41 -8 47 -52 45 -41 -2
-96 -37 -93 -61 5 -54 -2 -112 -13 -108 -7 2 -13 8 -13 13 -1 5 -7 20 -14 34
-8 13 -15 46 -16 73 -1 27 -7 52 -12 56 -5 3 -13 18 -16 33 -4 15 -13 33 -20
40 -15 14 -11 88 4 88 5 0 9 14 9 30 0 20 5 30 15 30 8 0 15 -5 15 -10 0 -13
62 -5 89 11 14 9 21 24 21 45 0 17 8 42 18 55 10 13 28 54 40 91 21 62 21 70
8 120 -8 29 -29 82 -47 118 -72 142 -70 148 17 68z m114 33 c0 -6 -4 -13 -10
-16 -5 -3 -10 1 -10 9 0 9 5 16 10 16 6 0 10 -4 10 -9z m90 -51 c0 -11 -4 -20
-10 -20 -5 0 -10 2 -10 4 0 2 -3 11 -6 20 -4 11 -1 16 10 16 9 0 16 -8 16 -20z
m-6906 -116 c7 -18 -29 -61 -38 -46 -8 13 10 62 23 62 5 0 12 -7 15 -16z m736
-19 c33 -17 38 -30 14 -39 -8 -3 -13 -2 -10 3 3 5 -1 11 -9 15 -8 3 -15 1 -15
-4 0 -5 -10 -12 -22 -16 -28 -9 -53 21 -35 42 16 18 42 17 77 -1z m6195 -4 c3
-5 1 -12 -5 -16 -5 -3 -10 1 -10 9 0 18 6 21 15 7z m315 -1 c0 -5 -18 -14 -40
-20 -21 -6 -42 -15 -45 -20 -8 -13 -95 -13 -95 0 0 5 10 12 23 15 12 3 49 11
82 19 77 18 75 18 75 6z m-390 -4 c0 -11 -19 -15 -25 -6 -3 5 1 10 9 10 9 0
16 -2 16 -4z m-1900 -131 c0 -14 -6 -25 -12 -25 -9 0 -8 -3 2 -10 13 -8 12
-11 -5 -24 -11 -9 -24 -16 -28 -16 -15 0 -20 32 -6 41 8 5 11 9 6 9 -10 0 23
50 34 50 5 0 9 -11 9 -25z m-5280 -54 c19 -41 22 -59 16 -113 -3 -34 -8 -115
-12 -178 -3 -63 -10 -134 -15 -157 -5 -23 -6 -48 -3 -56 3 -8 -5 -23 -18 -33
-24 -20 -33 -36 -64 -119 -32 -87 -21 -190 35 -306 10 -20 18 -62 19 -97 1
-35 6 -71 12 -82 15 -28 12 -60 -5 -67 -9 -3 -22 -21 -30 -39 -8 -19 -19 -34
-24 -34 -14 0 -13 11 2 31 7 10 12 40 11 72 -2 48 -8 64 -43 109 -48 64 -73
120 -96 216 -16 67 -16 73 -1 94 9 13 27 37 39 54 26 35 61 173 55 219 -2 22
-9 31 -26 33 -25 4 -24 19 5 75 16 33 37 37 28 5 -6 -18 -4 -20 5 -12 18 18
42 172 35 226 -3 26 -11 58 -19 72 -20 39 -7 107 24 123 39 20 45 16 70 -36z
m7556 14 c19 -8 40 -20 47 -27 16 -17 38 -75 44 -115 3 -18 9 -33 13 -33 5 0
4 -15 -2 -32 -6 -18 -13 -53 -17 -77 -3 -25 -11 -46 -16 -48 -14 -4 -35 54
-35 97 0 33 0 33 21 14 l22 -19 -7 47 c-14 92 -39 120 -150 171 l-50 22 40 6
c21 3 43 7 47 8 4 0 23 -6 43 -14z m-7093 -19 c-4 -21 -24 -48 -82 -111 -10
-11 -33 -40 -52 -65 -19 -25 -40 -49 -46 -53 -7 -4 -13 -14 -13 -22 0 -7 -6
-26 -14 -42 -8 -15 -23 -45 -33 -66 -17 -37 -75 -107 -87 -107 -3 0 -6 22 -6
50 0 101 126 304 243 392 71 53 97 60 90 24z m7184 -38 c-3 -8 -6 -5 -6 6 -1
11 2 17 5 13 3 -3 4 -12 1 -19z m30 -90 c-3 -7 -5 -2 -5 12 0 14 2 19 5 13 2
-7 2 -19 0 -25z m-930 -74 c-3 -3 -12 -4 -19 -1 -8 3 -5 6 6 6 11 1 17 -2 13
-5z m-20 -36 c-3 -8 -6 -5 -6 6 -1 11 2 17 5 13 3 -3 4 -12 1 -19z m-927 -57
c0 -6 -4 -13 -10 -16 -5 -3 -10 1 -10 9 0 9 5 16 10 16 6 0 10 -4 10 -9z m760
-1 c0 -5 -4 -10 -10 -10 -5 0 -10 5 -10 10 0 6 5 10 10 10 6 0 10 -4 10 -10z
m95 -9 c3 -5 1 -12 -4 -15 -5 -3 -11 1 -15 9 -6 16 9 21 19 6z m713 -149 c2
-12 -1 -22 -7 -22 -6 0 -11 4 -11 9 0 5 -3 17 -7 27 -4 12 -2 15 8 12 8 -2 15
-14 17 -26z m-585 -13 c10 -11 17 -23 15 -25 -6 -6 -48 26 -48 37 0 15 14 10
33 -12z m-6783 -209 c0 -11 -4 -20 -10 -20 -5 0 -10 9 -10 20 0 11 5 20 10 20
6 0 10 -9 10 -20z m-74 -687 c3 -10 14 -34 23 -53 30 -59 44 -172 37 -295 l-7
-111 35 -50 c61 -84 91 -179 61 -190 -23 -9 -50 27 -80 106 -16 41 -32 80 -36
85 -13 18 -37 98 -44 143 -3 24 -14 76 -24 115 -18 69 -19 123 -5 225 5 44 29
58 40 25z m6494 -342 c0 -10 -7 -24 -15 -31 -12 -10 -16 -9 -21 4 -3 9 -4 23
0 31 8 21 36 19 36 -4z m-2025 -311 c3 -5 1 -10 -4 -10 -6 0 -11 5 -11 10 0 6
2 10 4 10 3 0 8 -4 11 -10z m1228 -160 c35 -21 67 -75 67 -115 0 -18 -11 -32
-37 -49 -41 -25 -113 -42 -113 -25 0 6 -5 7 -12 3 -8 -5 -9 5 -4 37 12 80 12
84 -3 81 -10 -2 -12 6 -6 35 4 21 9 41 11 45 9 15 63 8 97 -12z m1412 -255
c58 -45 77 -94 83 -210 6 -113 8 -111 -68 -35 -39 39 -42 75 -8 101 17 13 18
17 4 28 -8 7 -24 10 -36 6 -16 -5 -20 -3 -18 8 2 8 -12 26 -29 41 -18 15 -33
34 -33 41 0 8 -7 18 -16 23 -10 6 -14 14 -9 22 13 21 88 6 130 -25z m46 -582
c46 -24 58 -36 84 -88 46 -90 85 -183 85 -199 0 -9 9 -39 19 -68 20 -55 34
-118 26 -118 -2 0 -31 14 -63 30 -33 17 -66 30 -75 30 -8 0 -18 7 -21 16 -3 8
-11 12 -17 8 -7 -4 -10 6 -8 32 3 43 -17 94 -38 94 -7 0 -13 9 -13 21 0 15 5
19 19 14 12 -3 21 0 25 10 3 9 10 13 16 10 5 -3 10 1 10 9 0 9 -8 16 -18 16
-23 0 -48 30 -44 53 2 10 -3 17 -12 17 -10 0 -15 8 -13 23 1 13 -3 21 -11 19
-7 -1 -15 6 -19 15 -3 10 -12 25 -20 34 -17 20 -7 49 16 49 10 0 42 -12 72
-27z m-3334 -200 c21 -9 67 -31 103 -49 36 -17 94 -41 130 -52 83 -25 236 -79
275 -97 52 -24 99 -43 145 -60 25 -10 68 -27 95 -40 28 -13 88 -40 135 -60 47
-21 119 -64 160 -96 41 -32 87 -62 101 -67 31 -12 175 -120 210 -159 28 -29
79 -117 79 -133 0 -15 -24 -12 -159 21 -129 31 -223 58 -276 79 -16 7 -64 13
-105 14 -41 1 -91 7 -110 13 -62 20 -143 41 -200 52 -58 12 -191 40 -302 65
-73 17 -108 34 -108 53 0 6 -5 13 -11 15 -17 6 -106 223 -124 303 -3 17 -14
41 -23 55 -8 14 -30 53 -47 87 -40 79 -36 86 32 56z m-3592 -1038 c27 -8 52
-12 56 -9 4 2 10 0 13 -5 4 -5 -2 -12 -11 -14 -14 -4 -13 -5 5 -6 12 0 22 4
22 9 0 14 85 6 104 -9 9 -8 21 -8 38 -2 14 5 31 5 40 0 8 -5 55 -13 103 -18
48 -6 90 -13 93 -16 3 -3 -23 -31 -57 -63 -35 -31 -84 -79 -110 -106 -138
-148 -209 -219 -237 -236 -17 -11 -63 -62 -103 -114 -46 -61 -80 -96 -94 -98
-14 -2 -25 -14 -31 -33 -19 -60 -70 -170 -90 -192 -42 -48 -44 -42 -66 202 -5
55 -16 134 -26 175 -9 41 -17 111 -16 154 0 72 4 87 39 154 21 41 49 83 63 94
14 11 45 38 69 61 38 35 121 87 142 87 3 0 28 -7 54 -15z m5450 -581 c22 -4
46 -14 55 -22 16 -16 50 -87 50 -105 0 -9 57 -141 92 -214 6 -12 23 -26 37
-31 39 -14 65 -112 30 -112 -4 0 -22 13 -39 30 -17 16 -40 30 -52 30 -14 0
-57 37 -125 108 -123 127 -192 219 -200 267 -5 32 -3 36 28 50 19 8 45 12 59
10 14 -2 43 -7 65 -11z m-2830 -644 c3 -5 -1 -10 -9 -10 -9 0 -16 5 -16 10 0
6 4 10 9 10 6 0 13 -4 16 -10z"/>
<path d="M7295 6020 c3 -5 8 -10 11 -10 2 0 4 5 4 10 0 6 -5 10 -11 10 -5 0
-7 -4 -4 -10z"/>
<path d="M6866 5471 c-4 -7 -5 -15 -2 -18 9 -9 19 4 14 18 -4 11 -6 11 -12 0z"/>
<path d="M6987 5052 c-10 -10 -17 -26 -17 -34 0 -26 71 -158 91 -171 11 -7 19
-17 19 -24 0 -7 4 -13 8 -13 16 0 91 -128 107 -185 13 -44 16 -78 11 -132 l-6
-72 46 3 c54 4 64 12 40 29 -16 12 -14 16 18 59 35 45 36 50 38 140 3 86 1 96
-23 133 -33 50 -112 130 -160 160 -19 13 -53 46 -74 74 -42 55 -70 64 -98 33z"/>
<path d="M6965 4853 c-11 -3 -24 -9 -29 -14 -6 -5 -18 -9 -27 -9 -9 0 -19 -7
-23 -15 -3 -8 -12 -12 -21 -9 -11 5 -14 2 -9 -10 3 -9 2 -22 -3 -29 -5 -6 -9
-19 -8 -27 1 -8 3 -27 3 -42 2 -19 7 -28 20 -28 13 0 14 -2 4 -9 -31 -19 17
-144 75 -196 29 -26 34 -37 36 -85 3 -53 4 -55 33 -55 36 0 66 13 59 26 -4 5
-2 9 3 9 4 0 28 16 51 36 l42 37 -2 81 c-2 44 -9 90 -15 101 -7 11 -15 36 -19
55 -4 19 -15 46 -23 60 -22 35 -72 92 -72 83 0 -4 -6 3 -13 17 -13 26 -28 31
-62 23z"/>
<path d="M6857 4143 c-12 -11 -7 -33 7 -33 12 0 26 20 26 36 0 7 -26 5 -33 -3z"/>
<path d="M6840 4091 c0 -6 5 -13 10 -16 6 -3 10 1 10 9 0 9 -4 16 -10 16 -5 0
-10 -4 -10 -9z"/>
<path d="M1097 1213 c-4 -3 -7 -13 -7 -21 0 -12 3 -12 15 -2 8 7 15 16 15 21
0 11 -14 12 -23 2z"/>
<path d="M1772 6734 c3 -18 -13 -30 -55 -39 -35 -7 -44 -29 -22 -51 17 -18 14
-76 -4 -82 -4 -1 -17 -9 -27 -17 -18 -14 -18 -14 0 -15 10 0 35 9 55 19 54 29
114 54 241 101 127 48 160 65 160 86 0 11 -33 14 -175 14 -157 0 -176 -2 -173
-16z"/>
<path d="M2145 6740 c3 -5 8 -10 11 -10 2 0 4 5 4 10 0 6 -5 10 -11 10 -5 0
-7 -4 -4 -10z"/>
<path d="M3320 6741 c20 -11 163 -23 183 -15 41 15 9 24 -90 24 -64 0 -102 -4
-93 -9z"/>
<path d="M5464 6733 c4 -10 12 -80 17 -157 14 -202 -4 -266 -104 -370 -49 -51
-103 -112 -159 -180 -14 -16 -30 -27 -38 -24 -10 3 -9 9 6 24 20 19 58 74 59
84 0 3 22 38 49 78 27 39 46 75 41 79 -4 5 -10 2 -13 -6 -7 -21 -53 -62 -81
-72 -19 -8 -27 -5 -38 11 -20 28 -59 26 -66 -2 -3 -13 -9 -70 -13 -128 -4 -68
-13 -121 -25 -149 -11 -24 -19 -51 -19 -61 0 -19 -31 -123 -97 -320 -68 -204
-116 -282 -276 -446 -54 -56 -115 -126 -135 -157 -38 -56 -80 -109 -142 -180
-19 -21 -79 -73 -135 -114 -58 -43 -137 -115 -187 -171 -120 -133 -118 -157
14 -203 l67 -24 33 31 c38 35 152 114 165 114 11 0 63 45 63 56 0 5 12 17 26
28 26 18 27 18 78 -5 28 -13 67 -34 86 -46 19 -13 49 -23 66 -23 17 0 51 -7
74 -15 24 -9 69 -17 99 -18 66 -4 98 -19 103 -47 2 -12 19 -31 37 -43 19 -12
32 -16 27 -9 -5 8 -2 10 9 6 9 -4 22 -19 30 -34 16 -31 59 -66 89 -71 11 -2
20 -13 22 -24 5 -32 34 -47 74 -39 19 5 49 7 65 6 50 -2 138 -10 180 -16 61
-9 232 10 250 28 8 8 15 19 15 25 0 18 -54 68 -120 110 -52 34 -72 41 -100 38
-19 -2 -52 2 -74 10 -47 16 -46 16 -46 -1 0 -8 -8 -17 -17 -20 -14 -6 -15 -9
-4 -15 9 -6 10 -11 2 -15 -11 -7 -51 14 -51 26 0 5 -14 8 -30 8 -21 0 -39 9
-55 26 -27 29 -30 40 -15 49 6 3 10 18 10 31 0 32 25 27 26 -6 2 -30 44 -63
61 -48 18 14 16 25 -8 59 -11 16 -17 29 -13 29 5 0 3 5 -4 12 -8 8 -15 8 -25
0 -11 -9 -19 -6 -38 14 -20 21 -29 24 -60 19 -27 -5 -45 -2 -66 12 -40 25 -53
39 -53 56 0 8 -13 29 -30 47 -16 18 -30 29 -30 25 0 -3 -13 3 -29 14 -23 17
-35 19 -54 12 -14 -5 -27 -8 -29 -5 -3 2 -18 5 -34 7 -16 1 -39 9 -50 16 -20
13 -20 16 -5 42 12 22 13 31 4 40 -9 9 -14 2 -22 -28 -9 -32 -15 -39 -38 -41
-37 -3 -73 17 -73 40 0 10 -4 18 -9 18 -18 0 -22 39 -7 74 8 20 21 36 29 36 9
0 17 15 20 38 5 26 19 50 47 77 22 21 40 43 40 47 0 11 49 87 73 113 10 11 34
45 52 75 55 90 200 309 261 395 31 44 59 89 62 100 3 11 45 98 93 193 49 95
100 207 113 250 14 42 36 104 50 137 25 60 50 200 47 265 -2 76 -14 157 -27
188 -12 29 -17 32 -55 32 -35 0 -40 -3 -35 -17z m-817 -2205 c18 -14 16 -57
-2 -64 -8 -4 -25 3 -37 15 -13 11 -34 29 -48 40 l-25 20 25 9 c25 10 62 1 87
-20z m573 -237 c5 -11 10 -29 10 -40 0 -11 7 -26 15 -33 52 -44 56 -53 25 -63
-21 -7 -63 11 -56 24 3 5 -8 29 -24 53 -32 48 -32 78 1 78 10 0 23 -9 29 -19z"/>
<path d="M3610 6239 c0 -6 7 -23 16 -39 18 -30 74 -68 74 -50 0 22 -29 67 -54
84 -30 19 -36 20 -36 5z"/>
<path d="M3380 5669 c0 -5 5 -7 10 -4 6 3 10 8 10 11 0 2 -4 4 -10 4 -5 0 -10
-5 -10 -11z"/>
<path d="M3455 5640 c-4 -6 -4 -10 -1 -10 2 0 11 -3 20 -6 9 -3 16 -2 16 4 0
14 -28 23 -35 12z"/>
<path d="M3964 5465 c4 -49 13 -133 22 -185 29 -186 31 -205 23 -235 -13 -45
-11 -75 5 -75 18 0 30 33 21 59 -6 19 13 137 36 231 6 25 15 61 20 80 17 73
18 149 2 165 -14 14 -18 14 -39 0 -25 -16 -54 -20 -54 -7 0 4 -10 18 -21 32
l-21 25 6 -90z"/>
<path d="M3015 5430 c3 -5 10 -10 16 -10 5 0 9 5 9 10 0 6 -7 10 -16 10 -8 0
-12 -4 -9 -10z"/>
<path d="M4855 4990 c-3 -5 -2 -10 4 -10 5 0 13 5 16 10 3 6 2 10 -4 10 -5 0
-13 -4 -16 -10z"/>
<path d="M4750 4836 c0 -7 8 -16 18 -20 9 -3 22 -8 28 -11 6 -3 14 3 17 14 3
14 -1 21 -17 25 -34 9 -46 7 -46 -8z"/>
<path d="M5270 4555 c-18 -21 -3 -32 16 -13 10 9 12 18 6 22 -5 3 -15 -1 -22
-9z"/>
<path d="M3927 3843 c-18 -17 -2 -49 49 -99 54 -52 87 -76 109 -80 33 -5 55
-19 55 -35 0 -28 49 -38 67 -13 7 10 11 24 9 30 -3 7 1 18 9 24 11 9 12 16 2
31 -9 14 -9 21 1 31 17 17 15 28 -7 28 -11 0 -31 -13 -44 -30 -30 -35 -66 -40
-74 -10 -3 11 -9 20 -14 20 -5 0 -9 9 -9 20 0 27 -35 60 -62 60 -13 0 -36 7
-52 15 -33 17 -31 17 -39 8z"/>
<path d="M4824 3826 c-8 -22 -2 -27 16 -16 12 7 12 12 3 21 -10 10 -14 9 -19
-5z"/>
<path d="M4080 3791 c0 -5 7 -11 15 -15 8 -3 15 -1 15 3 0 5 -7 11 -15 15 -8
3 -15 1 -15 -3z"/>
<path d="M5240 3680 c0 -5 5 -10 11 -10 5 0 7 5 4 10 -3 6 -8 10 -11 10 -2 0
-4 -4 -4 -10z"/>
<path d="M4274 3646 c-6 -16 33 -86 49 -86 6 0 18 -7 28 -16 26 -24 42 -9 25
24 -18 33 -73 92 -87 92 -5 0 -12 -6 -15 -14z"/>
<path d="M4632 3620 c9 -13 16 -16 23 -9 7 7 5 13 -5 19 -24 15 -31 11 -18
-10z"/>
<path d="M5608 3603 c7 -3 16 -2 19 1 4 3 -2 6 -13 5 -11 0 -14 -3 -6 -6z"/>
<path d="M4524 3515 c-7 -17 12 -45 30 -45 12 0 40 39 33 46 -3 3 -16 7 -31
10 -18 3 -28 -1 -32 -11z"/>
<path d="M5104 3509 c-3 -6 0 -18 9 -26 13 -13 14 -12 10 11 -6 29 -9 31 -19
15z"/>
<path d="M5132 3443 c-8 -3 -5 -11 10 -24 17 -15 19 -22 10 -26 -10 -4 -8 -11
9 -29 30 -32 61 -31 76 2 11 25 11 26 -12 21 -17 -3 -25 0 -25 9 0 17 -31 54
-45 53 -5 0 -16 -3 -23 -6z"/>
<path d="M5120 3140 c0 -5 4 -10 9 -10 6 0 13 5 16 10 3 6 -1 10 -9 10 -9 0
-16 -4 -16 -10z"/>
<path d="M5181 3121 c-11 -7 -10 -11 6 -19 22 -12 49 0 39 17 -9 13 -26 14
-45 2z"/>
<path d="M4610 3056 c0 -9 5 -16 10 -16 6 0 10 4 10 9 0 6 -4 13 -10 16 -5 3
-10 -1 -10 -9z"/>
<path d="M4726 3022 c-5 -9 54 -41 86 -47 9 -2 22 3 28 11 10 11 9 15 -5 20
-9 4 -20 2 -24 -5 -10 -15 -41 -3 -41 15 0 15 -35 20 -44 6z"/>
<path d="M5487 2879 c7 -7 15 -10 18 -7 3 3 -2 9 -12 12 -14 6 -15 5 -6 -5z"/>
<path d="M5164 2871 c4 -6 16 -11 27 -11 11 0 22 -7 25 -15 8 -19 24 -20 24
-1 0 18 -6 22 -49 31 -23 5 -31 4 -27 -4z"/>
<path d="M5262 2840 c-14 -23 -5 -26 21 -6 20 16 22 26 4 26 -7 0 -18 -9 -25
-20z"/>
<path d="M5328 2833 c6 -2 18 -2 25 0 6 3 1 5 -13 5 -14 0 -19 -2 -12 -5z"/>
<path d="M5285 2820 c-8 -13 20 -24 36 -15 8 6 7 10 -2 16 -18 11 -26 11 -34
-1z"/>
<path d="M5340 2810 c0 -5 9 -10 21 -10 11 0 17 5 14 10 -3 6 -13 10 -21 10
-8 0 -14 -4 -14 -10z"/>
<path d="M5140 2682 c0 -14 11 -21 26 -15 8 3 11 9 8 14 -7 11 -34 12 -34 1z"/>
<path d="M5190 2635 c0 -10 10 -15 31 -15 27 0 30 2 19 15 -7 8 -21 15 -31 15
-11 0 -19 -7 -19 -15z"/>
<path d="M5260 2611 c0 -6 5 -13 10 -16 6 -3 10 1 10 9 0 9 -4 16 -10 16 -5 0
-10 -4 -10 -9z"/>
<path d="M5305 2590 c-5 -9 -1 -10 13 -6 15 5 24 1 32 -14 14 -26 29 -26 27 0
-1 11 -6 20 -12 20 -5 0 -20 3 -31 6 -12 3 -25 0 -29 -6z"/>
<path d="M5615 2421 c-3 -5 -1 -12 5 -16 5 -3 10 1 10 9 0 18 -6 21 -15 7z"/>
<path d="M7070 46 c0 -9 5 -16 10 -16 6 0 10 -7 10 -15 0 -11 12 -15 45 -15
25 0 45 2 45 4 0 10 -58 45 -83 51 -21 6 -27 4 -27 -9z"/>
</g>
</svg>
